<?xml version="1.0" standalone="no"?>
<!DOCTYPE svg PUBLIC "-//W3C//DTD SVG 20010904//EN"
 "http://www.w3.org/TR/2001/REC-SVG-20010904/DTD/svg10.dtd">
<svg version="1.0" xmlns="http://www.w3.org/2000/svg"
 width="280.000000pt" height="280.000000pt" viewBox="0 0 280.000000 280.000000"
 preserveAspectRatio="xMidYMid meet">

<g transform="translate(0.000000,280.000000) scale(0.100000,-0.100000)"
fill="#000000" stroke="none">
<path d="M2405 2550 c-88 -22 -155 -74 -197 -153 -18 -34 -23 -59 -23 -127 0
-72 4 -94 29 -149 52 -116 35 -196 -150 -717 -53 -148 -105 -295 -116 -326
-11 -32 -24 -58 -30 -58 -17 0 -94 180 -166 390 -142 412 -149 451 -93 564 64
131 51 264 -35 356 -91 97 -227 123 -350 67 -114 -53 -175 -144 -175 -262 0
-120 56 -207 185 -284 109 -66 131 -98 206 -296 41 -110 47 -135 31 -135 -26
0 -298 -229 -500 -421 -63 -60 -122 -109 -130 -109 -8 0 -33 20 -55 44 -49 52
-88 141 -185 421 -131 375 -139 431 -81 555 65 142 42 273 -64 367 -198 174
-529 13 -503 -244 11 -109 71 -190 194 -261 39 -23 82 -57 98 -77 40 -53 95
-188 184 -454 116 -343 123 -411 56 -506 -59 -83 -74 -193 -39 -297 24 -73
109 -158 182 -182 97 -33 222 8 319 104 89 87 126 198 103 303 -12 51 -11 58
8 92 45 74 135 177 229 258 103 89 249 190 267 184 18 -6 58 -150 63 -228 5
-69 3 -81 -27 -150 -55 -123 -44 -246 31 -355 44 -65 109 -94 209 -94 65 0 85
5 146 34 38 18 83 49 99 67 90 107 97 265 15 377 -16 23 -30 48 -30 56 0 36
275 773 334 896 37 77 98 160 118 160 17 0 129 79 175 123 74 71 76 118 12
280 -39 97 -89 144 -184 175 -67 23 -107 26 -160 12z m145 -228 c30 -24 33
-101 5 -132 -33 -36 -64 -43 -111 -25 -55 21 -85 75 -63 115 30 53 126 77 169
42z m-1109 -92 c6 0 19 -19 29 -42 61 -134 -35 -201 -142 -100 -34 31 -35 60
-6 97 23 30 75 57 96 50 8 -3 18 -5 23 -5z m-1085 -87 c20 -21 44 -75 44 -102
0 -31 -21 -70 -41 -76 -55 -18 -149 45 -149 100 0 67 102 121 146 78z m1561
-1394 c42 -16 83 -59 83 -88 0 -34 -38 -79 -75 -90 -48 -13 -90 4 -109 43 -21
45 -20 74 4 114 21 35 47 40 97 21z m-1106 -119 c49 0 80 -88 43 -124 -26 -27
-81 -20 -115 14 -25 24 -30 37 -27 67 2 30 8 39 28 44 14 4 31 5 38 3 8 -2 22
-4 33 -4z"/>
</g>
</svg>
